HIERARCHY
ROOT Hips
{
    OFFSET   0.000000   0.000000   0.000000
    CHANNELS 6 Xposition Yposition Zposition Zrotation Xrotation Yrotation
    JOINT Chest
    {
        OFFSET   0.000000   8.007230   0.000000
        CHANNELS 3 Zrotation Xrotation Yrotation
        JOINT Chest2
        {
            OFFSET   0.000000  22.077100   0.000000
            CHANNELS 3 Zrotation Xrotation Yrotation
            JOINT Neck
            {
                OFFSET   0.000000  23.255100   0.000000
                CHANNELS 3 Zrotation Xrotation Yrotation
                JOINT Head
                {
                    OFFSET   0.000000  14.370100   1.956600
                    CHANNELS 3 Zrotation Xrotation Yrotation
                    End Site
                    {
                        OFFSET   0.000000  19.566000   0.000000
                    }
                }
            }
            JOINT LeftCollar
            {
                OFFSET   3.911900  19.017000  -0.467063
                CHANNELS 3 Zrotation Xrotation Yrotation
                JOINT LeftShoulder
                {
                    OFFSET  10.383700   0.000000   0.000000
                    CHANNELS 3 Zrotation Xrotation Yrotation
                    JOINT LeftElbow
                    {
                        OFFSET  26.662100   0.001193   0.000980
                        CHANNELS 3 Zrotation Xrotation Yrotation
                        JOINT LeftWrist
                        {
                            OFFSET  28.869000  -0.000059  -0.000082
                            CHANNELS 3 Zrotation Xrotation Yrotation
                            JOINT LeftFinger0
                            {
                                OFFSET   2.044650  -2.323450   3.252850
                                CHANNELS 3 Zrotation Xrotation Yrotation
                                JOINT LeftFinger01
                                {
                                    OFFSET   3.088130   0.000000   0.000000
                                    CHANNELS 3 Zrotation Xrotation Yrotation
                                    JOINT LeftFinger02
                                    {
                                        OFFSET   2.639460   0.000000   0.000000
                                        CHANNELS 3 Zrotation Xrotation Yrotation
                                        End Site
                                        {
                                            OFFSET   2.582190   0.000000   0.000000
                                        }
                                    }
                                }
                            }
                            JOINT LeftFinger1
                            {
                                OFFSET   8.364480   0.000000   3.252850
                                CHANNELS 3 Zrotation Xrotation Yrotation
                                JOINT LeftFinger11
                                {
                                    OFFSET   4.646930   0.000000   0.000000
                                    CHANNELS 3 Zrotation Xrotation Yrotation
                                    JOINT LeftFinger12
                                    {
                                        OFFSET   2.323470   0.000000   0.000000
                                        CHANNELS 3 Zrotation Xrotation Yrotation
                                        End Site
                                        {
                                            OFFSET   2.273050   0.000000   0.000000
                                        }
                                    }
                                }
                            }
                            JOINT LeftFinger2
                            {
                                OFFSET   8.364490   0.000016   1.078090
                                CHANNELS 3 Zrotation Xrotation Yrotation
                                JOINT LeftFinger21
                                {
                                    OFFSET   5.111610   0.000000   0.000000
                                    CHANNELS 3 Zrotation Xrotation Yrotation
                                    JOINT LeftFinger22
                                    {
                                        OFFSET   2.788150   0.000016   0.000000
                                        CHANNELS 3 Zrotation Xrotation Yrotation
                                        End Site
                                        {
                                            OFFSET   2.727660   0.000000   0.000000
                                        }
                                    }
                                }
                            }
                            JOINT LeftFinger3
                            {
                                OFFSET   7.899780   0.000015  -1.078090
                                CHANNELS 3 Zrotation Xrotation Yrotation
                                JOINT LeftFinger31
                                {
                                    OFFSET   4.646930   0.000000   0.000000
                                    CHANNELS 3 Zrotation Xrotation Yrotation
                                    JOINT LeftFinger32
                                    {
                                        OFFSET   2.323470   0.000000   0.000000
                                        CHANNELS 3 Zrotation Xrotation Yrotation
                                        End Site
                                        {
                                            OFFSET   2.273050   0.000000   0.000000
                                        }
                                    }
                                }
                            }
                            JOINT LeftFinger4
                            {
                                OFFSET   7.435090   0.000000  -3.252850
                                CHANNELS 3 Zrotation Xrotation Yrotation
                                JOINT LeftFinger41
                                {
                                    OFFSET   3.717550   0.000000   0.000000
                                    CHANNELS 3 Zrotation Xrotation Yrotation
                                    JOINT LeftFinger42
                                    {
                                        OFFSET   1.858770   0.000000   0.000000
                                        CHANNELS 3 Zrotation Xrotation Yrotation
                                        End Site
                                        {
                                            OFFSET   1.818440   0.000000   0.000000
                                        }
                                    }
                                }
                            }
                        }
                    }
                }
            }
            JOINT RightCollar
            {
                OFFSET  -3.911910  19.017000  -0.467062
                CHANNELS 3 Zrotation Xrotation Yrotation
                JOINT RightShoulder
                {
                    OFFSET -10.383700   0.000014   0.000000
                    CHANNELS 3 Zrotation Xrotation Yrotation
                    JOINT RightElbow
                    {
                        OFFSET -26.662100   0.001225   0.001091
                        CHANNELS 3 Zrotation Xrotation Yrotation
                        JOINT RightWrist
                        {
                            OFFSET -28.869000  -0.000020  -0.000085
                            CHANNELS 3 Zrotation Xrotation Yrotation
                            JOINT RightFinger0
                            {
                                OFFSET  -2.044650  -2.323490   3.252850
                                CHANNELS 3 Zrotation Xrotation Yrotation
                                JOINT RightFinger01
                                {
                                    OFFSET  -3.088130   0.000000   0.000000
                                    CHANNELS 3 Zrotation Xrotation Yrotation
                                    JOINT RightFinger02
                                    {
                                        OFFSET  -2.639460   0.000000   0.000000
                                        CHANNELS 3 Zrotation Xrotation Yrotation
                                        End Site
                                        {
                                            OFFSET  -2.582190   0.000000   0.000000
                                        }
                                    }
                                }
                            }
                            JOINT RightFinger1
                            {
                                OFFSET  -8.364480   0.000000   3.252850
                                CHANNELS 3 Zrotation Xrotation Yrotation
                                JOINT RightFinger11
                                {
                                    OFFSET  -4.646930   0.000000   0.000000
                                    CHANNELS 3 Zrotation Xrotation Yrotation
                                    JOINT RightFinger12
                                    {
                                        OFFSET  -2.323470   0.000000   0.000000
                                        CHANNELS 3 Zrotation Xrotation Yrotation
                                        End Site
                                        {
                                            OFFSET  -2.273050   0.000000   0.000000
                                        }
                                    }
                                }
                            }
                            JOINT RightFinger2
                            {
                                OFFSET  -8.364480   0.000000   1.078090
                                CHANNELS 3 Zrotation Xrotation Yrotation
                                JOINT RightFinger21
                                {
                                    OFFSET  -5.111620   0.000000   0.000000
                                    CHANNELS 3 Zrotation Xrotation Yrotation
                                    JOINT RightFinger22
                                    {
                                        OFFSET  -2.788160   0.000000   0.000000
                                        CHANNELS 3 Zrotation Xrotation Yrotation
                                        End Site
                                        {
                                            OFFSET  -2.727660   0.000000   0.000000
                                        }
                                    }
                                }
                            }
                            JOINT RightFinger3
                            {
                                OFFSET  -7.899780   0.000000  -1.078090
                                CHANNELS 3 Zrotation Xrotation Yrotation
                                JOINT RightFinger31
                                {
                                    OFFSET  -4.646930   0.000000   0.000000
                                    CHANNELS 3 Zrotation Xrotation Yrotation
                                    JOINT RightFinger32
                                    {
                                        OFFSET  -2.323470   0.000000   0.000000
                                        CHANNELS 3 Zrotation Xrotation Yrotation
                                        End Site
                                        {
                                            OFFSET  -2.273050   0.000000   0.000000
                                        }
                                    }
                                }
                            }
                            JOINT RightFinger4
                            {
                                OFFSET  -7.435090   0.000000  -3.252850
                                CHANNELS 3 Zrotation Xrotation Yrotation
                                JOINT RightFinger41
                                {
                                    OFFSET  -3.717550   0.000000   0.000000
                                    CHANNELS 3 Zrotation Xrotation Yrotation
                                    JOINT RightFinger42
                                    {
                                        OFFSET  -1.858760   0.000000   0.000000
                                        CHANNELS 3 Zrotation Xrotation Yrotation
                                        End Site
                                        {
                                            OFFSET  -1.818440   0.000000   0.000000
                                        }
                                    }
                                }
                            }
                        }
                    }
                }
            }
        }
    }
    JOINT LeftHip
    {
        OFFSET   9.783030   0.000000   0.000000
        CHANNELS 3 Zrotation Xrotation Yrotation
        JOINT LeftKnee
        {
            OFFSET   0.000063 -41.789100   0.000608
            CHANNELS 3 Zrotation Xrotation Yrotation
            JOINT LeftAnkle
            {
                OFFSET   0.000048 -41.133200  -0.000184
                CHANNELS 3 Zrotation Xrotation Yrotation
                JOINT LeftToe
                {
                    OFFSET   0.000000  -6.358960  14.674500
                    CHANNELS 3 Zrotation Xrotation Yrotation
                    End Site
                    {
                        OFFSET   0.000000   0.000000   3.913200
                    }
                }
            }
        }
    }
    JOINT RightHip
    {
        OFFSET  -9.783030   0.000000   0.000000
        CHANNELS 3 Zrotation Xrotation Yrotation
        JOINT RightKnee
        {
            OFFSET   0.000071 -41.789100   0.001239
            CHANNELS 3 Zrotation Xrotation Yrotation
            JOINT RightAnkle
            {
                OFFSET   0.000037 -41.133200  -0.000166
                CHANNELS 3 Zrotation Xrotation Yrotation
                JOINT RightToe
                {
                    OFFSET   0.000000  -6.358960  14.674500
                    CHANNELS 3 Zrotation Xrotation Yrotation
                    End Site
                    {
                        OFFSET   0.000000   0.000000   3.913200
                    }
                }
            }
        }
    }
}
MOTION
Frames: 4
Frame Time:   0.016667
  1.183300  89.383900  -1.072230  -7.017300 -14.500100 -11.247700   1.741230  10.450400   3.130500   2.965610  20.978600   6.089710   1.656670  -1.390070   0.037486   2.726330  -2.812070  -0.857279  -8.562880  -7.030260  -2.267220 -68.893500  27.047200  -8.056320  -2.230450  -9.001120 -19.420700  18.286500 -11.072800  11.043800  45.117800  40.690800 -70.029400 -31.190800   0.036315   0.026868 -10.595500   0.017236  -0.025310 -29.270800   6.489490 -11.423500 -24.475900  -0.009248  -0.008147 -17.133100  -0.006329  -0.006054 -27.993900  -0.065221   0.122499 -31.963500  -0.020793  -0.007197 -21.287700  -0.013803  -0.004816 -27.582700  -0.064361   0.122969 -29.618700  -0.008766  -0.002238 -19.726000  -0.005796  -0.001637 -27.558700  -0.064554   0.123067 -41.338600   0.025213   0.016805 -27.531400   0.015201   0.012055  11.370300  -2.592910  12.330500  -6.306640  12.126200  61.624900 -47.420400   5.209950  66.674400 -60.556800  21.090100  41.904700 -36.186200  32.300600  76.264900  25.016500   0.057162  -0.053913   7.508230   0.024299  -0.030922   3.767130   1.026490  14.689400   3.166850   0.064282  -0.000702   2.216790   0.044949  -0.002297   7.486080  -0.862352  -6.449000   7.491380   0.025051  -0.001717   4.989260   0.016506  -0.002883   4.313460  -0.803577 -11.017300   4.354660   0.069558   0.000493   2.900200   0.046271  -0.000971   6.687480  -2.861340 -23.877400  10.853600   0.179383  -0.029730   7.228480   0.114380  -0.037788   2.309680  19.208100   6.206410   1.011330   0.081651   5.556640  -0.221013  -4.742110   3.020600  -0.000000   0.000000   0.000000   6.251760  13.833200  -4.045210  -4.298510   6.447740  -1.446510   0.224707  -5.413980   5.901860   0.000000   0.000000   0.000000
  1.180710  89.378400  -1.066620  -7.075370 -14.518500 -11.246000   1.787300  10.465000   3.049540   3.074090  21.007700   5.912280   1.591550  -1.404280   0.036607   2.619030  -2.841350  -0.821507  -8.595440  -6.995410  -2.323790 -69.000500  26.509700  -7.815580  -2.277210  -8.676250 -19.724100  18.424400 -11.460800  10.945600  45.195900  40.843700 -70.297700 -31.239600   0.113947   0.069178 -10.619800   0.053464  -0.029318 -29.369700   6.484730 -11.347900 -24.557500   0.011173  -0.006126 -17.190200   0.007835  -0.004387 -28.022300  -0.113601   0.213174 -32.145300   0.018693   0.000490 -21.408800   0.012463   0.000592 -27.621300  -0.112114   0.213965 -29.812100  -0.009289  -0.002306 -19.854800  -0.006138  -0.001701 -27.693100  -0.112531   0.213818 -41.539900   0.026263   0.038602 -27.665500   0.015055   0.027002  11.619300  -2.662330  12.194000  -2.337290  12.012200  60.120000 -47.202300   5.350540  66.980200 -62.058300  21.645800  38.767200 -36.276000  32.133700  76.111400  26.452300   0.076786  -0.066269   8.226130   0.032500  -0.038956   4.351690   0.977851  11.631600   3.614780   0.100417  -0.002081   2.530340   0.070102  -0.005388   7.936570  -1.397750  -9.693560   8.023710  -0.002012   0.000463   5.343790  -0.001363  -0.000150   5.304780  -1.183280 -13.010800   5.418750   0.054127   0.000000   3.608890   0.035991  -0.000811   8.162710  -3.826830 -25.583700  13.434900   0.192804  -0.043940   8.947650   0.121028  -0.051563   2.370970  19.261400   6.158850   1.011130   0.093038   5.617990  -0.236806  -4.772080   2.988550  -0.000000   0.000000  -0.000000   6.315900  13.888900  -3.991000  -4.271550   6.441920  -1.533570   0.205948  -5.424340   5.912840  -0.000000   0.000000   0.000000
  1.177640  89.373300  -1.056020  -7.150460 -14.563300 -11.283200   1.849960  10.492000   2.951390   3.223550  21.061100   5.698400   1.461430  -1.393290   0.034373   2.404470  -2.819730  -0.695349  -8.625800  -6.977190  -2.348800 -69.098700  26.092000  -7.546230  -2.354170  -8.434800 -20.015700  18.385000 -11.719000  10.847200  45.286100  41.013000 -70.577800 -31.292100   0.195486   0.124637 -10.645900   0.093892   0.020987 -29.388700   6.455060 -11.272100 -24.572300   0.044892  -0.000504 -17.200600   0.031389   0.000055 -28.022300  -0.163418   0.306666 -32.144900   0.045814   0.008899 -21.408500   0.030229   0.007042 -27.625800  -0.161291   0.307796 -29.833500   0.028253   0.006839 -19.869100   0.018706   0.005015 -27.736200  -0.162024   0.307591 -41.604400   0.070477   0.076951 -27.708500   0.040400   0.057516  11.826500  -2.786010  12.065000   2.068150  11.843800  58.814900 -46.501400   5.377320  66.493100 -63.605100  22.572500  35.265400 -36.681600  32.670500  75.537900  27.979300   0.066553  -0.050548   8.989660   0.028998  -0.030018   5.106130   0.889216   8.850250   4.209980   0.124960  -0.009252   2.946980   0.086823  -0.012173   8.124140  -1.810220 -12.222200   8.310230  -0.025958   0.001759   5.534600  -0.017076   0.002502   6.091370  -1.469110 -13.973300   6.264970   0.031362  -0.000158   4.172470   0.020794  -0.000687   9.376110  -4.844040 -27.463600  15.718200   0.171140  -0.043222  10.468400   0.105992  -0.050202   2.452390  19.379600   6.068980   0.976788   0.047021   5.719680  -0.248672  -4.782600   2.997270   0.000000   0.000000   0.000000   6.385050  13.971600  -3.941000  -4.250930   6.426030  -1.616110   0.181673  -5.435720   5.947430   0.000000   0.000000  -0.000000
  1.173660  89.369200  -1.044620  -7.212130 -14.611800 -11.358300   1.910650  10.510900   2.851260   3.364290  21.100700   5.480650   1.309910  -1.363000   0.031213   2.155400  -2.759490  -0.508107  -8.648510  -6.972190  -2.355860 -69.170600  25.780200  -7.282410  -2.443050  -8.248050 -20.251800  18.234800 -11.835100  10.750200  45.393100  41.179500 -70.825500 -31.342400   0.245191   0.181323 -10.671000   0.118989   0.091704 -29.406400   6.409140 -11.203200 -24.574400   0.068411   0.006560 -17.202100   0.047673   0.005496 -28.021800  -0.209069   0.392576 -32.142000   0.059614   0.014089 -21.406600   0.039188   0.011121 -27.626000  -0.206352   0.394019 -29.836600   0.080697   0.019873 -19.871200   0.053379   0.014649 -27.741900  -0.207261   0.393880 -41.613700   0.113790   0.103271 -27.714700   0.065745   0.078938  12.009400  -2.936090  11.942100   7.031900  11.653700  57.587500 -44.942000   5.044780  65.341600 -64.501900  23.509800  31.329800 -37.468900  33.806100  74.385200  29.224400   0.021109  -0.012010   9.612210   0.009763  -0.007150   5.952270   0.750173   6.332820   4.887610   0.137367  -0.015042   3.421320   0.095169  -0.016910   8.155600  -2.011260 -13.438800   8.400350  -0.051266   0.005899   5.594630  -0.033594   0.007162   6.470550  -1.635900 -14.216400   6.677550   0.001948  -0.000186   4.447250   0.001298  -0.000233  10.226000  -5.746560 -29.285900  17.500100   0.116417  -0.038202  11.655100   0.070806  -0.040672   2.515590  19.500900   5.959840   0.915041   0.001020   5.786150  -0.255979  -4.783840   3.058030   0.000000   0.000000  -0.000000   6.442900  14.062900  -3.890550  -4.235210   6.393540  -1.684620   0.154144  -5.446630   5.979870  -0.000000   0.000000   0.000000
